<svg xmlns="http://www.w3.org/2000/svg" xmlns:xlink="http://www.w3.org/1999/xlink" viewBox="0 0 932.61 932.61"><defs><style>.cls-1{fill:url(#linear-gradient)}</style><linearGradient id="linear-gradient" x1="466.3" x2="466.3" y1="-60.52" y2="1162.63" gradientUnits="userSpaceOnUse"><stop offset="0" stop-color="#ed4c67"/><stop offset="1" stop-color="#833471"/></linearGradient></defs><title>link-logo</title><g id="Layer_2" data-name="Layer 2"><g id="links"><path id="link-logo" d="M466.3,0C208.77,0,0,208.77,0,466.3S208.77,932.61,466.3,932.61,932.61,723.84,932.61,466.3,723.84,0,466.3,0Zm35.41,649.14c-5.68,6.31-11.32,12.68-17.4,18.6-18.6,18.08-36.85,36.59-56.24,53.79-28.16,25-62.31,34-99,30.55-63.71-6-109.1-39.84-135.53-97.37-20.72-45.08-19.17-90.78,6-134.26,5.7-9.85,14.26-18.25,22.39-26.44q67.72-68.25,135.89-136.07c12.35-12.36,25.61-23.34,42-30,17.84-7.23,36.21-11.45,49.2-10.85,55.41.62,95.83,19.76,128.12,56.39a74.75,74.75,0,0,1,7.26,10.61,3.5,3.5,0,0,1-.3,3.3q-32.92,32.52-66.08,64.82c-5.45,5.28-6.3,4.94-9.9-2.08-8.21-16-21.42-25.87-38.45-30.42-6.35-1.7-13.22-1.83-19.86-1.89a23.53,23.53,0,0,0-16.8,7.06c-15,14.44-30.2,28.64-44.9,43.36q-46.9,47-93.33,94.39c-5.16,5.25-10.47,10.49-12.61,18a44.13,44.13,0,0,0,1.58,29.52c9.39,22.92,25.82,37.68,50.63,41.75,11,1.81,21.52-.54,30.21-8.12,6.57-5.74,12.85-11.81,19.29-17.7,6-5.48,6-5.51,13.33-2a179.73,179.73,0,0,0,52.57,16.25c11.78,1.64,23.84,1.33,35.78,1.8,4.3.18,8.62-.08,12.91.2,2,.13,3.92,1.08,5.89,1.66C503.52,645.72,503,647.74,501.71,649.14ZM729.05,418.88c-6.48,8.94-14.57,16.8-22.43,24.64q-70,69.81-140.29,139.28c-22.12,21.73-49.72,31-80.32,32.06-3.58.13-7.17,0-10.76,0-49.84-1-90.46-21.09-122.14-59.43-6.58-8-6.49-8.09.67-15.16q29.25-28.85,58.57-57.62c1.87-1.84,4-3.39,6-5.1,1.52-1.3,2.84-1.09,3.87.54,1.47,2.32,2.93,4.66,4.24,7.06,11.33,20.71,39.31,33.75,61.69,28.89a25.39,25.39,0,0,0,12.39-6.84c17.06-16.42,34.26-32.7,51-49.44,29.18-29.17,58.06-58.64,87.06-88,6.72-6.8,12.57-14,13.7-24.1,1.5-13.44-2.28-25.41-9.59-36.32-11-16.41-26.08-26.92-46.07-29-11.09-1.15-21.42,1.31-29.8,9.39-6.71,6.48-13.52,12.86-20.14,19.43-1.87,1.86-3.35,2.24-5.87,1.14-14.91-6.51-29.94-12.67-46-16.09-16.86-3.59-33.93-3.83-51.05-3.79-3.94,0-7.89-.22-11.83-.48a11.09,11.09,0,0,1-2.92-1c.4-1.05.54-2.33,1.25-3.11,6.29-6.88,12.46-13.89,19.07-20.46,18.17-18,36.31-36.09,54.87-53.7,16.42-15.57,36.47-24.29,58.51-28.63,52.51-10.32,98.1,4.47,137.23,39.57,32.29,29,50.2,65.76,53,109.15C755.13,363.37,747.82,393,729.05,418.88Z" class="cls-1"/></g></g></svg>